<svg version="1.1" xmlns="http://www.w3.org/2000/svg" viewBox="0 0 1765.1428571428573 1233.3722389066033" width="5295.4285714285725" height="3700.11671671981" filter="invert(93%) hue-rotate(180deg)">
  <!-- svg-source:excalidraw -->
  
  <defs>
    <style class="style-fonts">
      @font-face {
        font-family: "Virgil";
        src: url("https://excalidraw.com/Virgil.woff2");
      }
      @font-face {
        font-family: "Cascadia";
        src: url("https://excalidraw.com/Cascadia.woff2");
      }
    </style>
    
  </defs>
  <g stroke-linecap="round" transform="translate(426.2500000000007 55.452380952380906) rotate(0 297.5 108.5)"><path d="M32 0 M32 0 C210.06 0.36, 389.13 0.54, 563 0 M32 0 C162.17 0.93, 292.31 0.97, 563 0 M563 0 C582.64 -0.12, 593.6 12.01, 595 32 M563 0 C586.35 0.22, 594.6 9.96, 595 32 M595 32 C596.47 73.62, 595.79 120.14, 595 185 M595 32 C596.18 68.2, 596.58 102.74, 595 185 M595 185 C593.36 205.24, 584.78 218.12, 563 217 M595 185 C592.74 207.27, 585.78 218.14, 563 217 M563 217 C412.43 216.66, 260.09 217.94, 32 217 M563 217 C423.72 217.22, 284.29 216.92, 32 217 M32 217 C10.85 216.32, 0.63 204.69, 0 185 M32 217 C11.28 218.99, 1.86 206.53, 0 185 M0 185 C-0.32 145.64, 2.11 107.39, 0 32 M0 185 C0.48 148.47, 1.13 111.71, 0 32 M0 32 C1.75 8.83, 10.62 1.26, 32 0 M0 32 C1.57 11.68, 9.02 1.33, 32 0" stroke="#1971c2" stroke-width="1" fill="none"></path></g><g transform="translate(636.6420440673835 146.4523809523809) rotate(0 87.10795593261719 17.5)"><text x="87.10795593261719" y="0" font-family="Virgil, Segoe UI Emoji" font-size="28px" fill="#1971c2" text-anchor="middle" style="white-space: pre;" direction="ltr" dominant-baseline="text-before-edge">Staking page</text></g><g transform="translate(425.25000000000057 10.023809523809462) rotate(0 30.9539794921875 17.5)"><text x="0" y="0" font-family="Virgil, Segoe UI Emoji" font-size="28px" fill="#1971c2" text-anchor="start" style="white-space: pre;" direction="ltr" dominant-baseline="text-before-edge">dApp</text></g><g stroke-linecap="round"><g transform="translate(525.5742292174639 274.2460317460317) rotate(0 -1.1122306868770693 91.79535770304827)"><path d="M1.19 -1.15 C0.67 29.62, -2.96 152.92, -3.42 183.74 M0.36 0.85 C0.25 31.82, -0.74 154.12, -1.08 184.75" stroke="#1e1e1e" stroke-width="1" fill="none"></path></g><g transform="translate(525.5742292174639 274.2460317460317) rotate(0 -1.1122306868770693 91.79535770304827)"><path d="M-13 155.28 C-10.2 166.16, -7.36 172.73, -1.39 185.58 M-10.45 157.14 C-7.02 166.71, -3 179.12, -0.72 184.27" stroke="#1e1e1e" stroke-width="1" fill="none"></path></g><g transform="translate(525.5742292174639 274.2460317460317) rotate(0 -1.1122306868770693 91.79535770304827)"><path d="M7.52 155.47 C4.62 166.5, 1.75 173.02, -1.39 185.58 M10.07 157.34 C5.55 166.83, 1.61 179.16, -0.72 184.27" stroke="#1e1e1e" stroke-width="1" fill="none"></path></g></g><mask></mask><g stroke-linecap="round" transform="translate(444.1190476190483 465.77380952380946) rotate(0 201.45833333333337 56.25)"><path d="M28.13 0 M28.13 0 C151.61 0.75, 277.68 -1.19, 374.79 0 M28.13 0 C104.68 2.16, 181.61 2.06, 374.79 0 M374.79 0 C394.06 1.42, 404.17 11.34, 402.92 28.13 M374.79 0 C393.49 -1.47, 405.11 8.45, 402.92 28.13 M402.92 28.13 C404.76 42.78, 403.43 54.58, 402.92 84.38 M402.92 28.13 C403.68 46.78, 402.77 65.22, 402.92 84.38 M402.92 84.38 C401.76 102.38, 393.83 112.03, 374.79 112.5 M402.92 84.38 C402.5 103.29, 392.16 112.78, 374.79 112.5 M374.79 112.5 C301.68 112.38, 227.96 112.47, 28.13 112.5 M374.79 112.5 C269.71 111.72, 164.12 110.9, 28.13 112.5 M28.13 112.5 C9.71 110.66, 1.96 104.87, 0 84.38 M28.13 112.5 C8.1 112.99, -1.18 103.91, 0 84.38 M0 84.38 C0.96 72.68, 0.22 58.37, 0 28.13 M0 84.38 C1.26 66.8, -0.26 49.2, 0 28.13 M0 28.13 C0.07 8.21, 8.99 -0.89, 28.13 0 M0 28.13 C2 7.56, 8.88 0.33, 28.13 0" stroke="#1e1e1e" stroke-width="1" fill="none"></path></g><g transform="translate(489.08333333333394 501.8333333333333) rotate(0 162.4559326171875 17.5)"><text x="0" y="0" font-family="Virgil, Segoe UI Emoji" font-size="28px" fill="#1e1e1e" text-anchor="start" style="white-space: pre;" direction="ltr" dominant-baseline="text-before-edge">Staking smart contract</text></g><g stroke-linecap="round" transform="translate(1156.79761904762 50) rotate(0 289.30952380952397 68.92857142857144)"><path d="M32 0 M32 0 C161.51 -0.52, 291.09 -1.95, 546.62 0 M32 0 C207.17 1.33, 382.42 1.39, 546.62 0 M546.62 0 C568.26 1.73, 577.4 9.65, 578.62 32 M546.62 0 C568.38 1.5, 576.77 8.44, 578.62 32 M578.62 32 C579.78 47.41, 576.33 62.98, 578.62 105.86 M578.62 32 C580.08 48.11, 580.09 63.1, 578.62 105.86 M578.62 105.86 C580.27 128.23, 567.2 136.68, 546.62 137.86 M578.62 105.86 C579.31 125.83, 570.23 138.59, 546.62 137.86 M546.62 137.86 C369.09 139.28, 191.27 138.63, 32 137.86 M546.62 137.86 C400.93 137.09, 255.23 136.72, 32 137.86 M32 137.86 C11.22 137.56, -1.23 127.26, 0 105.86 M32 137.86 C8.89 136.84, 0.62 127.23, 0 105.86 M0 105.86 C-0.77 90.01, -0.15 72.73, 0 32 M0 105.86 C-0.52 79.76, 0.35 54.4, 0 32 M0 32 C-1.06 10.85, 12.56 0.05, 32 0 M0 32 C1.9 9.33, 10.09 -1.6, 32 0" stroke="#1971c2" stroke-width="1" fill="none"></path></g><g transform="translate(1173.4642857142865 10) rotate(0 37.43598175048828 17.5)"><text x="0" y="0" font-family="Virgil, Segoe UI Emoji" font-size="28px" fill="#1971c2" text-anchor="start" style="white-space: pre;" direction="ltr" dominant-baseline="text-before-edge">USER</text></g><g stroke-linecap="round"><g transform="translate(818.8134218701605 450.1024434872856) rotate(0 -0.7453318183634678 -86.73925872617608)"><path d="M-0.02 -0.9 C0.01 -30.17, 0 -145.96, -0.21 -174.72 M-1.49 1.24 C-1.49 -27.98, -0.48 -144.14, -0.58 -173.61" stroke="#1e1e1e" stroke-width="1" fill="none"></path></g><g transform="translate(818.8134218701605 450.1024434872856) rotate(0 -0.7453318183634678 -86.73925872617608)"><path d="M8.09 -143.53 C5.29 -152.97, 4.66 -160.14, -2.34 -174.31 M10.34 -146.06 C7.54 -152.48, 4.37 -160.16, -1.25 -172.75" stroke="#1e1e1e" stroke-width="1" fill="none"></path></g><g transform="translate(818.8134218701605 450.1024434872856) rotate(0 -0.7453318183634678 -86.73925872617608)"><path d="M-12.43 -143.6 C-9.71 -153.01, -4.83 -160.17, -2.34 -174.31 M-10.18 -146.13 C-7.9 -152.43, -6 -160.09, -1.25 -172.75" stroke="#1e1e1e" stroke-width="1" fill="none"></path></g></g><mask></mask><g transform="translate(846.7976190476196 345.2380952380952) rotate(0 221.2418823242187 17.5)"><text x="0" y="0" font-family="Virgil, Segoe UI Emoji" font-size="28px" fill="#1971c2" text-anchor="start" style="white-space: pre;" direction="ltr" dominant-baseline="text-before-edge">Response: isWhitelisted&lt;boolean&gt;</text></g><g transform="translate(69.41666666666629 340.9523809523812) rotate(0 214.5078887939453 17.5)"><text x="0" y="0" font-family="Virgil, Segoe UI Emoji" font-size="28px" fill="#1971c2" text-anchor="start" style="white-space: pre;" direction="ltr" dominant-baseline="text-before-edge">Request: &lt;string&gt;walletAddress</text></g><g transform="translate(521.7976190476186 498.5714285714287) rotate(0 10.54998779296875 12.5)"><text x="0" y="0" font-family="Virgil, Segoe UI Emoji" font-size="20px" fill="#ffffff" text-anchor="start" style="white-space: pre;" direction="ltr" dominant-baseline="text-before-edge">df</text></g><g transform="translate(576.7976190476186 490.23809523809547) rotate(0 5.019996643066406 12.5)"><text x="0" y="0" font-family="Virgil, Segoe UI Emoji" font-size="20px" fill="#ffffff" text-anchor="start" style="white-space: pre;" direction="ltr" dominant-baseline="text-before-edge">c</text></g><g stroke-linecap="round"><g transform="translate(1154.1785714285732 113.69464511130275) rotate(0 -65.62967263669543 -1.1021121280008401)"><path d="M-1.08 0.89 C-23.05 0.49, -110.37 -2.67, -131.82 -3.09 M0.56 0.31 C-21.06 0.11, -107.93 -1.3, -129.68 -1.95" stroke="#1971c2" stroke-width="1" fill="none"></path></g><g transform="translate(1154.1785714285732 113.69464511130275) rotate(0 -65.62967263669543 -1.1021121280008401)"><path d="M-99.79 -13.43 C-111.1 -7.32, -117.21 -4.83, -130.05 -0.47 M-100.36 -11.83 C-111.8 -8.35, -122.84 -4.74, -128.99 -1.25" stroke="#1971c2" stroke-width="1" fill="none"></path></g><g transform="translate(1154.1785714285732 113.69464511130275) rotate(0 -65.62967263669543 -1.1021121280008401)"><path d="M-100.24 7.09 C-111.3 7.06, -117.27 3.4, -130.05 -0.47 M-100.81 8.68 C-112.27 4.49, -123.14 0.41, -128.99 -1.25" stroke="#1971c2" stroke-width="1" fill="none"></path></g></g><mask></mask><g transform="translate(1217.5954239860414 77.84831466182885) rotate(0 245.47589111328125 35)"><text x="0" y="0" font-family="Virgil, Segoe UI Emoji" font-size="28px" fill="#1971c2" text-anchor="start" style="white-space: pre;" direction="ltr" dominant-baseline="text-before-edge">Wallet connection from any chain </text><text x="0" y="35" font-family="Virgil, Segoe UI Emoji" font-size="28px" fill="#1971c2" text-anchor="start" style="white-space: pre;" direction="ltr" dominant-baseline="text-before-edge">(Ethereum/Avalanche/Solana/Aptos)</text></g><g stroke-linecap="round" transform="translate(98.41468253968151 703.3840289475431) rotate(0 184.55357142857144 73.39285714285711)"><path d="M32 0 M32 0 C126.91 1.39, 221.95 0.81, 337.11 0 M32 0 C122.25 1.64, 214.1 1.52, 337.11 0 M337.11 0 C357.69 0.77, 368.77 9.4, 369.11 32 M337.11 0 C357.17 0.85, 368.83 11.54, 369.11 32 M369.11 32 C368.59 55.53, 369.96 79.57, 369.11 114.79 M369.11 32 C368.51 49.46, 369.25 65.39, 369.11 114.79 M369.11 114.79 C369.89 135.63, 359.68 146.23, 337.11 146.79 M369.11 114.79 C370.58 134.2, 359.06 146.25, 337.11 146.79 M337.11 146.79 C243.57 144.83, 151.34 145.17, 32 146.79 M337.11 146.79 C268.72 146.21, 200.99 146.33, 32 146.79 M32 146.79 C9.37 146.23, 0.51 134.97, 0 114.79 M32 146.79 C10.42 148.02, 2.09 136.11, 0 114.79 M0 114.79 C1.81 88.36, 1.11 66.06, 0 32 M0 114.79 C0.03 97.46, 0.22 80.42, 0 32 M0 32 C0.25 10.36, 11.59 0.55, 32 0 M0 32 C-0.38 12.31, 11.03 -0.16, 32 0" stroke="#2f9e44" stroke-width="1" fill="none"></path></g><g transform="translate(110.74031817723733 724.2768860904002) rotate(0 172.22793579101562 52.5)"><text x="172.22793579101562" y="0" font-family="Virgil, Segoe UI Emoji" font-size="28px" fill="#2f9e44" text-anchor="middle" style="white-space: pre;" direction="ltr" dominant-baseline="text-before-edge">Hosted Chainlink </text><text x="172.22793579101562" y="35" font-family="Virgil, Segoe UI Emoji" font-size="28px" fill="#2f9e44" text-anchor="middle" style="white-space: pre;" direction="ltr" dominant-baseline="text-before-edge">node(Ethereum/Avalance/</text><text x="172.22793579101562" y="70" font-family="Virgil, Segoe UI Emoji" font-size="28px" fill="#2f9e44" text-anchor="middle" style="white-space: pre;" direction="ltr" dominant-baseline="text-before-edge">Solana)</text></g><g stroke-linecap="round" transform="translate(492.58928571428567 701.3681409226529) rotate(0 184.55357142857144 73.39285714285711)"><path d="M32 0 M32 0 C102.89 2.42, 173.31 1.3, 337.11 0 M32 0 C126.85 1.02, 222.15 0.79, 337.11 0 M337.11 0 C356.58 0.02, 370.04 9.3, 369.11 32 M337.11 0 C356.81 -1.45, 369 12.77, 369.11 32 M369.11 32 C369.6 50.57, 369.91 64.55, 369.11 114.79 M369.11 32 C369.7 60.3, 368.81 90.34, 369.11 114.79 M369.11 114.79 C367.33 134.66, 356.84 147.07, 337.11 146.79 M369.11 114.79 C370.2 137.69, 358.82 144.97, 337.11 146.79 M337.11 146.79 C262.06 146.08, 190.24 148.58, 32 146.79 M337.11 146.79 C265.32 145.59, 194.26 145.6, 32 146.79 M32 146.79 C10.8 148, -0.28 137.71, 0 114.79 M32 146.79 C11.72 144.9, 1.09 136.36, 0 114.79 M0 114.79 C-1.6 87.91, -0.5 61.39, 0 32 M0 114.79 C-0.89 91.98, -0.04 70.98, 0 32 M0 32 C0.15 10.84, 10.59 -1.74, 32 0 M0 32 C0.72 9.11, 9.96 -1.24, 32 0" stroke="#2f9e44" stroke-width="1" fill="none"></path></g><g transform="translate(501.8629651750837 722.26099806551) rotate(0 175.27989196777344 52.5)"><text x="175.27989196777344" y="0" font-family="Virgil, Segoe UI Emoji" font-size="28px" fill="#2f9e44" text-anchor="middle" style="white-space: pre;" direction="ltr" dominant-baseline="text-before-edge">Chainlink </text><text x="175.27989196777344" y="35" font-family="Virgil, Segoe UI Emoji" font-size="28px" fill="#2f9e44" text-anchor="middle" style="white-space: pre;" direction="ltr" dominant-baseline="text-before-edge">functions(Ethereum/Avala</text><text x="175.27989196777344" y="70" font-family="Virgil, Segoe UI Emoji" font-size="28px" fill="#2f9e44" text-anchor="middle" style="white-space: pre;" direction="ltr" dominant-baseline="text-before-edge">nche)</text></g><g stroke-linecap="round" transform="translate(889.732142857143 701.3681409226529) rotate(0 184.5535714285715 73.39285714285711)"><path d="M32 0 M32 0 C146.42 -0.68, 263.2 -0.01, 337.11 0 M32 0 C108.98 -2.81, 185.84 -2.16, 337.11 0 M337.11 0 C359.1 -1.88, 369.69 8.69, 369.11 32 M337.11 0 C358.85 -0.72, 371.27 10.84, 369.11 32 M369.11 32 C367.66 61.59, 371.19 93.43, 369.11 114.79 M369.11 32 C368.47 59.91, 368.62 87.54, 369.11 114.79 M369.11 114.79 C368.23 135.12, 357.96 148.13, 337.11 146.79 M369.11 114.79 C366.97 135.32, 357.47 146.09, 337.11 146.79 M337.11 146.79 C239.29 146.33, 142.06 147.57, 32 146.79 M337.11 146.79 C259.5 148.76, 181.6 149.12, 32 146.79 M32 146.79 C12.25 148.36, -1.73 137.27, 0 114.79 M32 146.79 C8.53 147.76, 0.88 136.8, 0 114.79 M0 114.79 C0.89 96.42, 1.57 74.96, 0 32 M0 114.79 C-1.08 95.58, -0.07 78.29, 0 32 M0 32 C-1.91 12.57, 11.91 -0.57, 32 0 M0 32 C-0.56 12.47, 11.8 -1.69, 32 0" stroke="#2f9e44" stroke-width="1" fill="none"></path></g><g transform="translate(952.9757701328824 739.76099806551) rotate(0 121.30994415283203 35)"><text x="121.30994415283203" y="0" font-family="Virgil, Segoe UI Emoji" font-size="28px" fill="#2f9e44" text-anchor="middle" style="white-space: pre;" direction="ltr" dominant-baseline="text-before-edge">Chainlink </text><text x="121.30994415283203" y="35" font-family="Virgil, Segoe UI Emoji" font-size="28px" fill="#2f9e44" text-anchor="middle" style="white-space: pre;" direction="ltr" dominant-baseline="text-before-edge">AnyAPI(Ethereum)</text></g><g stroke-linecap="round" transform="translate(10 656.5070435868374) rotate(0 872.5714285714287 133.8571428571429)"><path d="M32 0 M32 0 C615.08 -1.59, 1198.67 -0.59, 1713.14 0 M32 0 C596.55 0.45, 1161.63 0.42, 1713.14 0 M1713.14 0 C1733.77 0.57, 1743.48 10.6, 1745.14 32 M1713.14 0 C1735.35 0.74, 1746.76 11.98, 1745.14 32 M1745.14 32 C1746.35 104.09, 1746.31 173.6, 1745.14 235.71 M1745.14 32 C1744.27 75.3, 1743.5 119.64, 1745.14 235.71 M1745.14 235.71 C1744.93 258.56, 1736.24 267.62, 1713.14 267.71 M1745.14 235.71 C1746.56 255.56, 1733.16 268.58, 1713.14 267.71 M1713.14 267.71 C1227.85 273.59, 742.43 272.35, 32 267.71 M1713.14 267.71 C1153.08 273.68, 592.16 273.83, 32 267.71 M32 267.71 C10.09 266.58, -0.57 257.56, 0 235.71 M32 267.71 C9.69 267.24, 2.2 257.55, 0 235.71 M0 235.71 C1.21 193.16, 2.36 151.51, 0 32 M0 235.71 C-1.93 158.49, -1.95 81.38, 0 32 M0 32 C-1.97 11.34, 11.03 1.27, 32 0 M0 32 C-1.89 9.11, 9.38 -0.21, 32 0" stroke="#2f9e44" stroke-width="1" fill="none"></path></g><g transform="translate(33.6043079921177 600.2768697946794) rotate(0 123.70394134521484 17.5)"><text x="0" y="0" font-family="Virgil, Segoe UI Emoji" font-size="28px" fill="#2f9e44" text-anchor="start" style="white-space: pre;" direction="ltr" dominant-baseline="text-before-edge">Oracle integration</text></g><g stroke-linecap="round"><g transform="translate(797.2582748447462 582.4894360352873) rotate(0 -0.2714364475118032 34.09884124953328)"><path d="M-1.18 1.2 C-1.17 12.03, 0.61 55.04, 0.64 65.97 M0.4 0.78 C0.26 12.32, -0.08 56.75, 0.08 67.41" stroke="#1e1e1e" stroke-width="1" fill="none"></path></g><g transform="translate(797.2582748447462 582.4894360352873) rotate(0 -0.2714364475118032 34.09884124953328)"><path d="M-8.22 40.49 C-6.68 47.65, -1.73 60.83, -1.44 66.99 M-9.72 39.89 C-5.87 49.7, -3.99 58.2, -0.35 68.01" stroke="#1e1e1e" stroke-width="1" fill="none"></path></g><g transform="translate(797.2582748447462 582.4894360352873) rotate(0 -0.2714364475118032 34.09884124953328)"><path d="M12.3 40.46 C6.65 47.43, 4.41 60.62, -1.44 66.99 M10.81 39.86 C7.69 49.59, 2.61 58.1, -0.35 68.01" stroke="#1e1e1e" stroke-width="1" fill="none"></path></g></g><mask></mask><g stroke-linecap="round"><g transform="translate(556.7753185880129 646.2939370735519) rotate(0 -0.5337012711847251 -32.52384190902626)"><path d="M0.01 1.09 C0.14 -9.97, 0.26 -54.91, 0.37 -66.14 M-1.44 0.62 C-1.45 -10.31, -0.91 -53.9, -0.68 -64.89" stroke="#1e1e1e" stroke-width="1" fill="none"></path></g><g transform="translate(556.7753185880129 646.2939370735519) rotate(0 -0.5337012711847251 -32.52384190902626)"><path d="M10.95 -36.87 C5.53 -43.97, 2.68 -52.49, -2.33 -64.23 M9.74 -37.36 C6.21 -47.34, 1.17 -55.89, -1.61 -63.97" stroke="#1e1e1e" stroke-width="1" fill="none"></path></g><g transform="translate(556.7753185880129 646.2939370735519) rotate(0 -0.5337012711847251 -32.52384190902626)"><path d="M-9.57 -37.19 C-9.5 -44.21, -6.87 -52.64, -2.33 -64.23 M-10.78 -37.68 C-6.93 -47.68, -4.6 -56.11, -1.61 -63.97" stroke="#1e1e1e" stroke-width="1" fill="none"></path></g></g><mask></mask><g stroke-linecap="round" transform="translate(1298.8750000000002 700.5903926330905) rotate(0 184.55357142857144 73.39285714285711)"><path d="M32 0 M32 0 C123.81 0.99, 214.08 2.25, 337.11 0 M32 0 C101.4 1.84, 171.58 1.41, 337.11 0 M337.11 0 C356.91 -0.4, 369.22 9.69, 369.11 32 M337.11 0 C359.17 -1.1, 368.03 12.46, 369.11 32 M369.11 32 C369.94 53.56, 369.32 73.4, 369.11 114.79 M369.11 32 C367.59 51.9, 368.28 72.02, 369.11 114.79 M369.11 114.79 C368.28 135.68, 359.58 145.17, 337.11 146.79 M369.11 114.79 C370.44 135.75, 356.5 146.21, 337.11 146.79 M337.11 146.79 C261.95 146.63, 186.66 146.25, 32 146.79 M337.11 146.79 C255.43 146.91, 174.39 147.06, 32 146.79 M32 146.79 C10.23 146.61, 0.29 137.65, 0 114.79 M32 146.79 C9.65 147.71, 0.01 137.23, 0 114.79 M0 114.79 C-0.43 84.87, -0.27 57.29, 0 32 M0 114.79 C0.63 84.58, 1.08 54.54, 0 32 M0 32 C1.57 9.84, 11.64 -1.51, 32 0 M0 32 C1.11 10.73, 9.88 -0.47, 32 0" stroke="#2f9e44" stroke-width="1" fill="none"></path></g><g transform="translate(1307.9246651785718 721.4832497759476) rotate(0 175.50390625 52.5)"><text x="175.50390625" y="0" font-family="Virgil, Segoe UI Emoji" font-size="28px" fill="#2f9e44" text-anchor="middle" style="white-space: pre;" direction="ltr" dominant-baseline="text-before-edge">Data Feed from Oracle </text><text x="175.50390625" y="35" font-family="Virgil, Segoe UI Emoji" font-size="28px" fill="#2f9e44" text-anchor="middle" style="white-space: pre;" direction="ltr" dominant-baseline="text-before-edge">available on Aptos(chain </text><text x="175.50390625" y="70" font-family="Virgil, Segoe UI Emoji" font-size="28px" fill="#2f9e44" text-anchor="middle" style="white-space: pre;" direction="ltr" dominant-baseline="text-before-edge">not supprted by Chainlink)</text></g><g stroke-linecap="round"><g transform="translate(1146.7245319888193 933.6780991624587) rotate(0 0.18764539489882281 82.95909652771326)"><path d="M0.9 -1.12 C1.07 26.9, 0.42 139.08, 0.15 167.04 M-0.09 0.91 C0.04 28.67, -0.28 137.34, -0.55 165.18" stroke="#1e1e1e" stroke-width="1" fill="none"></path></g><g transform="translate(1146.7245319888193 933.6780991624587) rotate(0 0.18764539489882281 82.95909652771326)"><path d="M-12.51 137.72 C-7.74 142.62, -6.17 150.83, -1.37 164.31 M-10.51 137.61 C-6.67 145.84, -4.8 156.04, -1.03 165.9" stroke="#1e1e1e" stroke-width="1" fill="none"></path></g><g transform="translate(1146.7245319888193 933.6780991624587) rotate(0 0.18764539489882281 82.95909652771326)"><path d="M8.01 137.84 C8.1 142.86, 5 151.05, -1.37 164.31 M10.01 137.72 C6.89 146.06, 1.79 156.22, -1.03 165.9" stroke="#1e1e1e" stroke-width="1" fill="none"></path></g></g><mask></mask><g stroke-linecap="round" transform="translate(630.4285714285716 1118.3722389066033) rotate(0 304.16666666666663 52.5)"><path d="M26.25 0 M26.25 0 C212.31 -0.07, 398.04 -0.71, 582.08 0 M26.25 0 C218.09 -1.65, 409.94 -1.76, 582.08 0 M582.08 0 C598.17 0.62, 609.45 9.69, 608.33 26.25 M582.08 0 C600.3 -0.42, 606.99 10.52, 608.33 26.25 M608.33 26.25 C607.53 44.07, 608.46 64.06, 608.33 78.75 M608.33 26.25 C608.41 38.43, 608.01 52.4, 608.33 78.75 M608.33 78.75 C607.09 97.11, 600.15 106.09, 582.08 105 M608.33 78.75 C609.67 98.52, 597.77 106.16, 582.08 105 M582.08 105 C374.21 105.72, 164.77 105.91, 26.25 105 M582.08 105 C369.09 106.14, 155.94 106, 26.25 105 M26.25 105 C9.19 103.12, -1.68 97.49, 0 78.75 M26.25 105 C8.78 103.87, 0.79 94.52, 0 78.75 M0 78.75 C1.8 68.61, 1.59 59.1, 0 26.25 M0 78.75 C-0.32 64.72, 0.71 51.33, 0 26.25 M0 26.25 C-1.15 7.1, 7.6 0.41, 26.25 0 M0 26.25 C-0.82 9.32, 10.7 0.06, 26.25 0" stroke="#1971c2" stroke-width="1" fill="none"></path></g><g transform="translate(767.995308285668 1153.3722389066033) rotate(0 166.5999298095703 17.5)"><text x="166.5999298095703" y="0" font-family="Virgil, Segoe UI Emoji" font-size="28px" fill="#1971c2" text-anchor="middle" style="white-space: pre;" direction="ltr" dominant-baseline="text-before-edge">Backend - Whitelist API</text></g><g transform="translate(1175.952380952381 1003.3008103351749) rotate(0 170.0859375 17.5)"><text x="0" y="0" font-family="Virgil, Segoe UI Emoji" font-size="28px" fill="#1971c2" text-anchor="start" style="white-space: pre;" direction="ltr" dominant-baseline="text-before-edge">/api/isaddresswhitelisted</text></g><g stroke-linecap="round"><g transform="translate(723.628939366423 1102.7294357655808) rotate(0 -0.7575904592233655 -86.77388262346904)"><path d="M1.02 1.06 C0.44 -28.12, -2.26 -145.42, -2.54 -174.61 M0.1 0.58 C-0.21 -28.54, -0.21 -144.68, -0.4 -173.62" stroke="#1e1e1e" stroke-width="1" fill="none"></path></g><g transform="translate(723.628939366423 1102.7294357655808) rotate(0 -0.7575904592233655 -86.77388262346904)"><path d="M11.71 -147.29 C4.18 -154.76, 1.14 -166.11, -1.89 -172.78 M10.8 -145.09 C4.76 -156.75, 1.2 -166.93, -0.76 -173.19" stroke="#1e1e1e" stroke-width="1" fill="none"></path></g><g transform="translate(723.628939366423 1102.7294357655808) rotate(0 -0.7575904592233655 -86.77388262346904)"><path d="M-8.81 -147.23 C-8.56 -154.9, -3.83 -166.27, -1.89 -172.78 M-9.72 -145.03 C-7.67 -156.75, -3.14 -166.95, -0.76 -173.19" stroke="#1e1e1e" stroke-width="1" fill="none"></path></g></g><mask></mask><g transform="translate(472.2380952380954 1001.777022427983) rotate(0 114.5759506225586 17.5)"><text x="0" y="0" font-family="Virgil, Segoe UI Emoji" font-size="28px" fill="#1971c2" text-anchor="start" style="white-space: pre;" direction="ltr" dominant-baseline="text-before-edge">boolean response</text></g></svg>